<mxfile host="Electron" modified="2024-12-02T07:31:00.044Z" agent="Mozilla/5.0 (Windows NT 10.0; Win64; x64) AppleWebKit/537.36 (KHTML, like Gecko) draw.io/24.6.4 Chrome/124.0.6367.207 Electron/30.0.6 Safari/537.36" etag="lnVXhJJvcfpDgqxpZIC8" version="24.6.4" type="device">
  <diagram name="Страница — 1" id="cdMy71BkuGv2QSkImevG">
    <mxGraphModel dx="1909" dy="1144" grid="1" gridSize="10" guides="1" tooltips="1" connect="1" arrows="1" fold="1" page="1" pageScale="1" pageWidth="3300" pageHeight="2339" math="0" shadow="0">
      <root>
        <mxCell id="0" />
        <mxCell id="1" parent="0" />
        <mxCell id="BmsCWMG4lTgQBCQrbxtK-1" value="" style="ellipse;whiteSpace=wrap;html=1;aspect=fixed;fillColor=#000000;" parent="1" vertex="1">
          <mxGeometry x="1860" y="173.43" width="40" height="40" as="geometry" />
        </mxCell>
        <mxCell id="BmsCWMG4lTgQBCQrbxtK-2" value="" style="endArrow=classic;html=1;rounded=0;" parent="1" edge="1">
          <mxGeometry width="50" height="50" relative="1" as="geometry">
            <mxPoint x="1879.5" y="213.43" as="sourcePoint" />
            <mxPoint x="1880" y="253.43" as="targetPoint" />
          </mxGeometry>
        </mxCell>
        <mxCell id="BmsCWMG4lTgQBCQrbxtK-3" value="&lt;font style=&quot;font-size: 15px;&quot;&gt;Вход на сайт&lt;/font&gt;" style="rounded=1;whiteSpace=wrap;html=1;arcSize=43;" parent="1" vertex="1">
          <mxGeometry x="1820" y="253.43" width="120" height="60" as="geometry" />
        </mxCell>
        <mxCell id="BmsCWMG4lTgQBCQrbxtK-4" value="" style="endArrow=classic;html=1;rounded=0;" parent="1" edge="1">
          <mxGeometry width="50" height="50" relative="1" as="geometry">
            <mxPoint x="1879.5" y="313.43" as="sourcePoint" />
            <mxPoint x="1880" y="353.43" as="targetPoint" />
          </mxGeometry>
        </mxCell>
        <mxCell id="BmsCWMG4lTgQBCQrbxtK-6" style="edgeStyle=orthogonalEdgeStyle;rounded=0;orthogonalLoop=1;jettySize=auto;html=1;" parent="1" source="BmsCWMG4lTgQBCQrbxtK-5" edge="1">
          <mxGeometry relative="1" as="geometry">
            <mxPoint x="1030" y="373" as="targetPoint" />
          </mxGeometry>
        </mxCell>
        <mxCell id="BmsCWMG4lTgQBCQrbxtK-8" style="edgeStyle=orthogonalEdgeStyle;rounded=0;orthogonalLoop=1;jettySize=auto;html=1;" parent="1" source="BmsCWMG4lTgQBCQrbxtK-5" edge="1">
          <mxGeometry relative="1" as="geometry">
            <mxPoint x="2580" y="373.43" as="targetPoint" />
          </mxGeometry>
        </mxCell>
        <mxCell id="BmsCWMG4lTgQBCQrbxtK-5" value="" style="rhombus;whiteSpace=wrap;html=1;" parent="1" vertex="1">
          <mxGeometry x="1845" y="353.43" width="70" height="40" as="geometry" />
        </mxCell>
        <mxCell id="BmsCWMG4lTgQBCQrbxtK-7" value="" style="endArrow=none;html=1;rounded=0;" parent="1" edge="1">
          <mxGeometry width="50" height="50" relative="1" as="geometry">
            <mxPoint x="1031.57" y="413.43" as="sourcePoint" />
            <mxPoint x="1031.57" y="373.43" as="targetPoint" />
          </mxGeometry>
        </mxCell>
        <mxCell id="BmsCWMG4lTgQBCQrbxtK-9" value="" style="endArrow=none;html=1;rounded=0;" parent="1" edge="1">
          <mxGeometry width="50" height="50" relative="1" as="geometry">
            <mxPoint x="2580" y="413.43" as="sourcePoint" />
            <mxPoint x="2580" y="373.43" as="targetPoint" />
          </mxGeometry>
        </mxCell>
        <mxCell id="BmsCWMG4lTgQBCQrbxtK-10" value="&lt;font style=&quot;font-size: 15px;&quot;&gt;[Гость]&lt;/font&gt;" style="text;html=1;align=center;verticalAlign=middle;resizable=0;points=[];autosize=1;strokeColor=none;fillColor=none;" parent="1" vertex="1">
          <mxGeometry x="1595" y="331.43" width="70" height="30" as="geometry" />
        </mxCell>
        <mxCell id="BmsCWMG4lTgQBCQrbxtK-11" value="&lt;font style=&quot;font-size: 15px;&quot;&gt;[Администратор]&lt;/font&gt;" style="text;html=1;align=center;verticalAlign=middle;resizable=0;points=[];autosize=1;strokeColor=none;fillColor=none;" parent="1" vertex="1">
          <mxGeometry x="2020" y="331.43" width="140" height="30" as="geometry" />
        </mxCell>
        <mxCell id="BmsCWMG4lTgQBCQrbxtK-13" value="" style="html=1;points=[[0,0,0,0,5],[0,1,0,0,-5],[1,0,0,0,5],[1,1,0,0,-5]];perimeter=orthogonalPerimeter;outlineConnect=0;targetShapes=umlLifeline;portConstraint=eastwest;newEdgeStyle={&quot;curved&quot;:0,&quot;rounded&quot;:0};rotation=-90;fillColor=#000000;fontSize=15;" parent="1" vertex="1">
          <mxGeometry x="1021.57" y="-290" width="10" height="1416.88" as="geometry" />
        </mxCell>
        <mxCell id="BmsCWMG4lTgQBCQrbxtK-14" value="" style="html=1;points=[[0,0,0,0,5],[0,1,0,0,-5],[1,0,0,0,5],[1,1,0,0,-5]];perimeter=orthogonalPerimeter;outlineConnect=0;targetShapes=umlLifeline;portConstraint=eastwest;newEdgeStyle={&quot;curved&quot;:0,&quot;rounded&quot;:0};rotation=-90;fillColor=#000000;" parent="1" vertex="1">
          <mxGeometry x="2504.15" y="-131.72" width="10" height="1100.34" as="geometry" />
        </mxCell>
        <mxCell id="BmsCWMG4lTgQBCQrbxtK-15" value="" style="endArrow=classic;html=1;rounded=0;fontSize=15;" parent="1" edge="1">
          <mxGeometry width="50" height="50" relative="1" as="geometry">
            <mxPoint x="1230" y="423.43" as="sourcePoint" />
            <mxPoint x="1230" y="463.43" as="targetPoint" />
          </mxGeometry>
        </mxCell>
        <mxCell id="BmsCWMG4lTgQBCQrbxtK-18" value="" style="endArrow=classic;html=1;rounded=0;fontSize=15;" parent="1" edge="1">
          <mxGeometry width="50" height="50" relative="1" as="geometry">
            <mxPoint x="1229.5700000000002" y="503.43" as="sourcePoint" />
            <mxPoint x="1229.5700000000002" y="543.43" as="targetPoint" />
          </mxGeometry>
        </mxCell>
        <mxCell id="BmsCWMG4lTgQBCQrbxtK-20" value="" style="endArrow=classic;html=1;rounded=0;fontSize=15;" parent="1" edge="1">
          <mxGeometry width="50" height="50" relative="1" as="geometry">
            <mxPoint x="1229.47" y="593.43" as="sourcePoint" />
            <mxPoint x="1229.47" y="633.43" as="targetPoint" />
          </mxGeometry>
        </mxCell>
        <mxCell id="BmsCWMG4lTgQBCQrbxtK-30" value="" style="endArrow=classic;html=1;rounded=0;entryX=0.5;entryY=-0.081;entryDx=0;entryDy=0;entryPerimeter=0;fontSize=15;" parent="1" edge="1">
          <mxGeometry width="50" height="50" relative="1" as="geometry">
            <mxPoint x="1229.5700000000002" y="683.43" as="sourcePoint" />
            <mxPoint x="1230" y="731.81" as="targetPoint" />
          </mxGeometry>
        </mxCell>
        <mxCell id="BmsCWMG4lTgQBCQrbxtK-36" style="edgeStyle=orthogonalEdgeStyle;rounded=0;orthogonalLoop=1;jettySize=auto;html=1;fontSize=15;" parent="1" source="BmsCWMG4lTgQBCQrbxtK-35" edge="1">
          <mxGeometry relative="1" as="geometry">
            <mxPoint x="1120" y="753.43" as="targetPoint" />
          </mxGeometry>
        </mxCell>
        <mxCell id="BmsCWMG4lTgQBCQrbxtK-37" style="edgeStyle=orthogonalEdgeStyle;rounded=0;orthogonalLoop=1;jettySize=auto;html=1;fontSize=15;" parent="1" source="BmsCWMG4lTgQBCQrbxtK-35" edge="1">
          <mxGeometry relative="1" as="geometry">
            <mxPoint x="1340" y="753.43" as="targetPoint" />
          </mxGeometry>
        </mxCell>
        <mxCell id="BmsCWMG4lTgQBCQrbxtK-35" value="" style="rhombus;whiteSpace=wrap;html=1;fontSize=15;" parent="1" vertex="1">
          <mxGeometry x="1190" y="733.43" width="80" height="40" as="geometry" />
        </mxCell>
        <mxCell id="BmsCWMG4lTgQBCQrbxtK-38" value="" style="endArrow=none;html=1;rounded=0;fontSize=15;" parent="1" edge="1">
          <mxGeometry width="50" height="50" relative="1" as="geometry">
            <mxPoint x="1120" y="783.43" as="sourcePoint" />
            <mxPoint x="1120" y="753.43" as="targetPoint" />
          </mxGeometry>
        </mxCell>
        <mxCell id="BmsCWMG4lTgQBCQrbxtK-40" value="[Результаты&amp;nbsp;&lt;div style=&quot;font-size: 15px;&quot;&gt;найдены]&lt;/div&gt;" style="text;html=1;align=center;verticalAlign=middle;resizable=0;points=[];autosize=1;strokeColor=none;fillColor=none;fontSize=15;" parent="1" vertex="1">
          <mxGeometry x="1105" y="708.43" width="110" height="50" as="geometry" />
        </mxCell>
        <mxCell id="BmsCWMG4lTgQBCQrbxtK-41" value="[Результаты не&amp;nbsp;&lt;div style=&quot;font-size: 15px;&quot;&gt;найдены]&lt;/div&gt;" style="text;html=1;align=center;verticalAlign=middle;resizable=0;points=[];autosize=1;strokeColor=none;fillColor=none;fontSize=15;" parent="1" vertex="1">
          <mxGeometry x="1235" y="708.43" width="130" height="50" as="geometry" />
        </mxCell>
        <mxCell id="BmsCWMG4lTgQBCQrbxtK-43" style="edgeStyle=orthogonalEdgeStyle;rounded=0;orthogonalLoop=1;jettySize=auto;html=1;fontSize=15;" parent="1" edge="1">
          <mxGeometry relative="1" as="geometry">
            <mxPoint x="1120" y="933.43" as="targetPoint" />
            <mxPoint x="1120.0526315789473" y="823.43" as="sourcePoint" />
          </mxGeometry>
        </mxCell>
        <mxCell id="BmsCWMG4lTgQBCQrbxtK-44" style="edgeStyle=orthogonalEdgeStyle;rounded=0;orthogonalLoop=1;jettySize=auto;html=1;fontSize=15;" parent="1" edge="1">
          <mxGeometry relative="1" as="geometry">
            <mxPoint x="1340" y="933.43" as="targetPoint" />
            <mxPoint x="1340" y="753.43" as="sourcePoint" />
          </mxGeometry>
        </mxCell>
        <mxCell id="BmsCWMG4lTgQBCQrbxtK-45" value="" style="html=1;points=[[0,0,0,0,5],[0,1,0,0,-5],[1,0,0,0,5],[1,1,0,0,-5]];perimeter=orthogonalPerimeter;outlineConnect=0;targetShapes=umlLifeline;portConstraint=eastwest;newEdgeStyle={&quot;curved&quot;:0,&quot;rounded&quot;:0};rotation=-90;fillColor=#000000;fontSize=15;" parent="1" vertex="1">
          <mxGeometry x="1018.13" y="233.44" width="10" height="1415" as="geometry" />
        </mxCell>
        <mxCell id="BmsCWMG4lTgQBCQrbxtK-46" value="" style="endArrow=classic;html=1;rounded=0;fontSize=15;" parent="1" edge="1">
          <mxGeometry width="50" height="50" relative="1" as="geometry">
            <mxPoint x="1419.47" y="423.43" as="sourcePoint" />
            <mxPoint x="1419.47" y="463.43" as="targetPoint" />
          </mxGeometry>
        </mxCell>
        <mxCell id="BmsCWMG4lTgQBCQrbxtK-48" style="edgeStyle=orthogonalEdgeStyle;rounded=0;orthogonalLoop=1;jettySize=auto;html=1;fontSize=15;" parent="1" edge="1">
          <mxGeometry relative="1" as="geometry">
            <mxPoint x="1419.6399999999999" y="938.43" as="targetPoint" />
            <mxPoint x="1419.58" y="513.43" as="sourcePoint" />
          </mxGeometry>
        </mxCell>
        <mxCell id="BmsCWMG4lTgQBCQrbxtK-49" value="" style="endArrow=classic;html=1;rounded=0;fontSize=15;" parent="1" edge="1">
          <mxGeometry width="50" height="50" relative="1" as="geometry">
            <mxPoint x="1614.47" y="423.43" as="sourcePoint" />
            <mxPoint x="1614.47" y="463.43" as="targetPoint" />
          </mxGeometry>
        </mxCell>
        <mxCell id="BmsCWMG4lTgQBCQrbxtK-52" value="&lt;font style=&quot;font-size: 17px;&quot;&gt;Просмотр положения о проведении спортивных мероприятиях&lt;/font&gt;" style="rounded=1;whiteSpace=wrap;html=1;arcSize=35;fontSize=15;" parent="1" vertex="1">
          <mxGeometry x="910" y="463.43" width="205" height="56.57" as="geometry" />
        </mxCell>
        <mxCell id="BmsCWMG4lTgQBCQrbxtK-53" value="" style="endArrow=classic;html=1;rounded=0;fontSize=15;" parent="1" edge="1">
          <mxGeometry width="50" height="50" relative="1" as="geometry">
            <mxPoint x="1030" y="423.43" as="sourcePoint" />
            <mxPoint x="1030" y="463.43" as="targetPoint" />
          </mxGeometry>
        </mxCell>
        <mxCell id="BmsCWMG4lTgQBCQrbxtK-54" value="&lt;font style=&quot;font-size: 17px;&quot;&gt;Поиск информации&lt;/font&gt;" style="rounded=1;whiteSpace=wrap;html=1;arcSize=35;fontSize=15;" parent="1" vertex="1">
          <mxGeometry x="1140" y="463.43" width="180" height="50" as="geometry" />
        </mxCell>
        <mxCell id="BmsCWMG4lTgQBCQrbxtK-55" value="&lt;font style=&quot;font-size: 17px;&quot;&gt;Просмотр новостей&lt;/font&gt;" style="rounded=1;whiteSpace=wrap;html=1;arcSize=35;fontSize=15;" parent="1" vertex="1">
          <mxGeometry x="1330" y="463.43" width="180" height="50" as="geometry" />
        </mxCell>
        <mxCell id="BmsCWMG4lTgQBCQrbxtK-56" value="&lt;font style=&quot;font-size: 17px;&quot;&gt;Просмотр информации о проводимых спартакиадах&lt;/font&gt;" style="rounded=1;whiteSpace=wrap;html=1;arcSize=35;fontSize=15;" parent="1" vertex="1">
          <mxGeometry x="1520" y="463.43" width="220" height="56.57" as="geometry" />
        </mxCell>
        <mxCell id="BmsCWMG4lTgQBCQrbxtK-57" value="&lt;font style=&quot;font-size: 17px;&quot;&gt;Заполнение формы поиска&lt;/font&gt;" style="rounded=1;whiteSpace=wrap;html=1;arcSize=35;fontSize=15;" parent="1" vertex="1">
          <mxGeometry x="1140" y="543.43" width="180" height="50" as="geometry" />
        </mxCell>
        <mxCell id="BmsCWMG4lTgQBCQrbxtK-58" value="&lt;font style=&quot;font-size: 17px;&quot;&gt;Начало поиска&lt;/font&gt;" style="rounded=1;whiteSpace=wrap;html=1;arcSize=35;fontSize=15;" parent="1" vertex="1">
          <mxGeometry x="1140" y="633.43" width="180" height="50" as="geometry" />
        </mxCell>
        <mxCell id="BmsCWMG4lTgQBCQrbxtK-59" value="&lt;font style=&quot;font-size: 17px;&quot;&gt;Просмотр новостей&lt;/font&gt;" style="rounded=1;whiteSpace=wrap;html=1;arcSize=35;fontSize=15;" parent="1" vertex="1">
          <mxGeometry x="1030" y="783.43" width="180" height="50" as="geometry" />
        </mxCell>
        <mxCell id="BmsCWMG4lTgQBCQrbxtK-60" style="edgeStyle=orthogonalEdgeStyle;rounded=0;orthogonalLoop=1;jettySize=auto;html=1;fontSize=15;" parent="1" edge="1">
          <mxGeometry relative="1" as="geometry">
            <mxPoint x="1615" y="939.07" as="targetPoint" />
            <mxPoint x="1614.58" y="520" as="sourcePoint" />
          </mxGeometry>
        </mxCell>
        <mxCell id="BmsCWMG4lTgQBCQrbxtK-61" value="&lt;font style=&quot;font-size: 17px;&quot;&gt;Просмотр графика работы спортивных секций&lt;/font&gt;" style="rounded=1;whiteSpace=wrap;html=1;arcSize=35;fontSize=15;" parent="1" vertex="1">
          <mxGeometry x="720" y="463.43" width="180" height="56.57" as="geometry" />
        </mxCell>
        <mxCell id="BmsCWMG4lTgQBCQrbxtK-62" style="edgeStyle=orthogonalEdgeStyle;rounded=0;orthogonalLoop=1;jettySize=auto;html=1;fontSize=15;" parent="1" edge="1">
          <mxGeometry relative="1" as="geometry">
            <mxPoint x="1024.47" y="938.43" as="targetPoint" />
            <mxPoint x="1024.41" y="513.43" as="sourcePoint" />
          </mxGeometry>
        </mxCell>
        <mxCell id="BmsCWMG4lTgQBCQrbxtK-63" value="&lt;font style=&quot;font-size: 17px;&quot;&gt;Просмотр графика работы спортивных залов&lt;/font&gt;" style="rounded=1;whiteSpace=wrap;html=1;arcSize=35;fontSize=15;" parent="1" vertex="1">
          <mxGeometry x="530" y="463.42" width="180" height="56.58" as="geometry" />
        </mxCell>
        <mxCell id="BmsCWMG4lTgQBCQrbxtK-64" style="edgeStyle=orthogonalEdgeStyle;rounded=0;orthogonalLoop=1;jettySize=auto;html=1;fontSize=15;" parent="1" edge="1">
          <mxGeometry relative="1" as="geometry">
            <mxPoint x="810" y="933.29" as="targetPoint" />
            <mxPoint x="809.5000000000001" y="519.9999999999999" as="sourcePoint" />
          </mxGeometry>
        </mxCell>
        <mxCell id="BmsCWMG4lTgQBCQrbxtK-65" value="" style="endArrow=classic;html=1;rounded=0;fontSize=15;" parent="1" edge="1">
          <mxGeometry width="50" height="50" relative="1" as="geometry">
            <mxPoint x="809.5" y="423.43" as="sourcePoint" />
            <mxPoint x="809.5" y="463.43" as="targetPoint" />
          </mxGeometry>
        </mxCell>
        <mxCell id="BmsCWMG4lTgQBCQrbxtK-66" value="" style="endArrow=classic;html=1;rounded=0;fontSize=15;" parent="1" edge="1">
          <mxGeometry width="50" height="50" relative="1" as="geometry">
            <mxPoint x="619.7599999999999" y="423.43" as="sourcePoint" />
            <mxPoint x="619.7599999999999" y="463.43" as="targetPoint" />
          </mxGeometry>
        </mxCell>
        <mxCell id="BmsCWMG4lTgQBCQrbxtK-67" style="edgeStyle=orthogonalEdgeStyle;rounded=0;orthogonalLoop=1;jettySize=auto;html=1;fontSize=15;" parent="1" edge="1">
          <mxGeometry relative="1" as="geometry">
            <mxPoint x="619.6400000000001" y="938.43" as="targetPoint" />
            <mxPoint x="620" y="520" as="sourcePoint" />
          </mxGeometry>
        </mxCell>
        <mxCell id="BmsCWMG4lTgQBCQrbxtK-68" value="Отправить сообщение преподавателю" style="rounded=1;whiteSpace=wrap;html=1;arcSize=35;fontSize=17;" parent="1" vertex="1">
          <mxGeometry x="340" y="558.34" width="180" height="53.29" as="geometry" />
        </mxCell>
        <mxCell id="BmsCWMG4lTgQBCQrbxtK-69" value="" style="endArrow=classic;html=1;rounded=0;fontSize=15;" parent="1" source="BmsCWMG4lTgQBCQrbxtK-13" edge="1">
          <mxGeometry width="50" height="50" relative="1" as="geometry">
            <mxPoint x="429.58" y="426.71" as="sourcePoint" />
            <mxPoint x="429.58" y="466.71" as="targetPoint" />
          </mxGeometry>
        </mxCell>
        <mxCell id="BmsCWMG4lTgQBCQrbxtK-71" value="Заполнение формы сообщения" style="rounded=1;whiteSpace=wrap;html=1;arcSize=35;fontSize=17;" parent="1" vertex="1">
          <mxGeometry x="340" y="466.7099999999999" width="180" height="50" as="geometry" />
        </mxCell>
        <mxCell id="BmsCWMG4lTgQBCQrbxtK-72" value="Получение ответа на почту" style="rounded=1;whiteSpace=wrap;html=1;arcSize=35;fontSize=17;" parent="1" vertex="1">
          <mxGeometry x="340" y="653.28" width="180" height="50" as="geometry" />
        </mxCell>
        <mxCell id="BmsCWMG4lTgQBCQrbxtK-73" value="" style="endArrow=classic;html=1;rounded=0;fontSize=17;" parent="1" edge="1">
          <mxGeometry width="50" height="50" relative="1" as="geometry">
            <mxPoint x="429.71" y="613.28" as="sourcePoint" />
            <mxPoint x="429.71" y="653.28" as="targetPoint" />
          </mxGeometry>
        </mxCell>
        <mxCell id="BmsCWMG4lTgQBCQrbxtK-75" value="" style="endArrow=classic;html=1;rounded=0;fontSize=15;" parent="1" edge="1">
          <mxGeometry width="50" height="50" relative="1" as="geometry">
            <mxPoint x="429.58" y="703.28" as="sourcePoint" />
            <mxPoint x="430" y="940" as="targetPoint" />
          </mxGeometry>
        </mxCell>
        <mxCell id="BmsCWMG4lTgQBCQrbxtK-76" value="" style="endArrow=classic;html=1;rounded=0;fontSize=15;" parent="1" edge="1">
          <mxGeometry width="50" height="50" relative="1" as="geometry">
            <mxPoint x="2089.47" y="423.43" as="sourcePoint" />
            <mxPoint x="2089.47" y="463.43" as="targetPoint" />
          </mxGeometry>
        </mxCell>
        <mxCell id="BmsCWMG4lTgQBCQrbxtK-77" value="Редактирование информации о спартакиадах" style="rounded=1;whiteSpace=wrap;html=1;arcSize=35;fontSize=17;" parent="1" vertex="1">
          <mxGeometry x="1970" y="463.43" width="240" height="50" as="geometry" />
        </mxCell>
        <mxCell id="BmsCWMG4lTgQBCQrbxtK-78" value="" style="html=1;points=[[0,0,0,0,5],[0,1,0,0,-5],[1,0,0,0,5],[1,1,0,0,-5]];perimeter=orthogonalPerimeter;outlineConnect=0;targetShapes=umlLifeline;portConstraint=eastwest;newEdgeStyle={&quot;curved&quot;:0,&quot;rounded&quot;:0};rotation=-90;fillColor=#000000;fontSize=15;" parent="1" vertex="1">
          <mxGeometry x="2503.04" y="390.83" width="10" height="1100.21" as="geometry" />
        </mxCell>
        <mxCell id="BmsCWMG4lTgQBCQrbxtK-80" value="&lt;font style=&quot;font-size: 17px;&quot;&gt;Редактирование новостей&lt;/font&gt;" style="rounded=1;whiteSpace=wrap;html=1;arcSize=35;fontSize=15;" parent="1" vertex="1">
          <mxGeometry x="2220.78" y="463.43" width="190" height="50" as="geometry" />
        </mxCell>
        <mxCell id="BmsCWMG4lTgQBCQrbxtK-81" value="" style="endArrow=classic;html=1;rounded=0;fontSize=15;" parent="1" edge="1">
          <mxGeometry width="50" height="50" relative="1" as="geometry">
            <mxPoint x="2315.07" y="423.43" as="sourcePoint" />
            <mxPoint x="2315.07" y="463.43" as="targetPoint" />
          </mxGeometry>
        </mxCell>
        <mxCell id="BmsCWMG4lTgQBCQrbxtK-85" value="" style="endArrow=classic;html=1;rounded=0;fontSize=15;exitX=0.526;exitY=0.989;exitDx=0;exitDy=0;exitPerimeter=0;" parent="1" edge="1">
          <mxGeometry width="50" height="50" relative="1" as="geometry">
            <mxPoint x="2089.47" y="610" as="sourcePoint" />
            <mxPoint x="2089.47" y="935.94" as="targetPoint" />
          </mxGeometry>
        </mxCell>
        <mxCell id="BmsCWMG4lTgQBCQrbxtK-86" value="" style="endArrow=classic;html=1;rounded=0;fontSize=15;exitX=0.526;exitY=0.989;exitDx=0;exitDy=0;exitPerimeter=0;" parent="1" edge="1">
          <mxGeometry width="50" height="50" relative="1" as="geometry">
            <mxPoint x="2315.36" y="513.43" as="sourcePoint" />
            <mxPoint x="2315.36" y="560.4300000000001" as="targetPoint" />
          </mxGeometry>
        </mxCell>
        <mxCell id="BmsCWMG4lTgQBCQrbxtK-88" value="" style="endArrow=classic;html=1;rounded=0;fontSize=15;exitX=0.526;exitY=0.989;exitDx=0;exitDy=0;exitPerimeter=0;" parent="1" edge="1">
          <mxGeometry width="50" height="50" relative="1" as="geometry">
            <mxPoint x="2315.36" y="610" as="sourcePoint" />
            <mxPoint x="2315.36" y="936" as="targetPoint" />
          </mxGeometry>
        </mxCell>
        <mxCell id="BmsCWMG4lTgQBCQrbxtK-89" value="" style="endArrow=classic;html=1;rounded=0;fontSize=15;" parent="1" edge="1">
          <mxGeometry width="50" height="50" relative="1" as="geometry">
            <mxPoint x="2530" y="423.43" as="sourcePoint" />
            <mxPoint x="2530" y="463.43" as="targetPoint" />
          </mxGeometry>
        </mxCell>
        <mxCell id="BmsCWMG4lTgQBCQrbxtK-90" value="&lt;font style=&quot;font-size: 17px;&quot;&gt;Отправка на почту&lt;/font&gt;" style="rounded=1;whiteSpace=wrap;html=1;arcSize=35;fontSize=15;" parent="1" vertex="1">
          <mxGeometry x="2870" y="559.99" width="190" height="50" as="geometry" />
        </mxCell>
        <mxCell id="BmsCWMG4lTgQBCQrbxtK-91" value="&lt;font style=&quot;font-size: 17px;&quot;&gt;Ответы на сообщения&lt;/font&gt;" style="rounded=1;whiteSpace=wrap;html=1;arcSize=35;fontSize=15;" parent="1" vertex="1">
          <mxGeometry x="2870" y="463.42" width="190" height="50" as="geometry" />
        </mxCell>
        <mxCell id="BmsCWMG4lTgQBCQrbxtK-92" value="&lt;font style=&quot;font-size: 17px;&quot;&gt;Редактирование графика работы спортивных секций&lt;/font&gt;" style="rounded=1;whiteSpace=wrap;html=1;arcSize=35;fontSize=15;" parent="1" vertex="1">
          <mxGeometry x="2420.78" y="463.43" width="219.22" height="50" as="geometry" />
        </mxCell>
        <mxCell id="BmsCWMG4lTgQBCQrbxtK-93" value="" style="endArrow=classic;html=1;rounded=0;fontSize=15;exitX=0.526;exitY=0.989;exitDx=0;exitDy=0;exitPerimeter=0;" parent="1" edge="1">
          <mxGeometry width="50" height="50" relative="1" as="geometry">
            <mxPoint x="2529.86" y="513.43" as="sourcePoint" />
            <mxPoint x="2529.86" y="560.4300000000001" as="targetPoint" />
          </mxGeometry>
        </mxCell>
        <mxCell id="BmsCWMG4lTgQBCQrbxtK-95" value="" style="endArrow=classic;html=1;rounded=0;fontSize=15;exitX=0.526;exitY=0.989;exitDx=0;exitDy=0;exitPerimeter=0;" parent="1" edge="1">
          <mxGeometry width="50" height="50" relative="1" as="geometry">
            <mxPoint x="2529.86" y="609.99" as="sourcePoint" />
            <mxPoint x="2529.86" y="935.99" as="targetPoint" />
          </mxGeometry>
        </mxCell>
        <mxCell id="BmsCWMG4lTgQBCQrbxtK-96" value="" style="endArrow=classic;html=1;rounded=0;fontSize=15;" parent="1" edge="1">
          <mxGeometry width="50" height="50" relative="1" as="geometry">
            <mxPoint x="2754.4700000000003" y="423.43" as="sourcePoint" />
            <mxPoint x="2754.4700000000003" y="463.43" as="targetPoint" />
          </mxGeometry>
        </mxCell>
        <mxCell id="BmsCWMG4lTgQBCQrbxtK-97" value="&lt;font style=&quot;font-size: 17px;&quot;&gt;Редактирование графика работы спортивных залов&lt;/font&gt;" style="rounded=1;whiteSpace=wrap;html=1;arcSize=35;fontSize=15;" parent="1" vertex="1">
          <mxGeometry x="2650" y="463.43" width="210" height="50" as="geometry" />
        </mxCell>
        <mxCell id="BmsCWMG4lTgQBCQrbxtK-98" value="" style="endArrow=classic;html=1;rounded=0;fontSize=15;exitX=0.526;exitY=0.989;exitDx=0;exitDy=0;exitPerimeter=0;" parent="1" edge="1">
          <mxGeometry width="50" height="50" relative="1" as="geometry">
            <mxPoint x="2754.47" y="512.99" as="sourcePoint" />
            <mxPoint x="2754.47" y="559.9900000000001" as="targetPoint" />
          </mxGeometry>
        </mxCell>
        <mxCell id="BmsCWMG4lTgQBCQrbxtK-99" value="&lt;font style=&quot;font-size: 17px;&quot;&gt;Сохранение изменений&lt;/font&gt;" style="rounded=1;whiteSpace=wrap;html=1;arcSize=35;fontSize=15;" parent="1" vertex="1">
          <mxGeometry x="2660" y="559.99" width="190" height="50" as="geometry" />
        </mxCell>
        <mxCell id="BmsCWMG4lTgQBCQrbxtK-100" value="" style="endArrow=classic;html=1;rounded=0;fontSize=15;exitX=0.526;exitY=0.989;exitDx=0;exitDy=0;exitPerimeter=0;" parent="1" edge="1">
          <mxGeometry width="50" height="50" relative="1" as="geometry">
            <mxPoint x="2754.47" y="609.99" as="sourcePoint" />
            <mxPoint x="2754.47" y="935.99" as="targetPoint" />
          </mxGeometry>
        </mxCell>
        <mxCell id="BmsCWMG4lTgQBCQrbxtK-101" value="" style="endArrow=classic;html=1;rounded=0;fontSize=15;" parent="1" edge="1">
          <mxGeometry width="50" height="50" relative="1" as="geometry">
            <mxPoint x="2964.4100000000003" y="423.42" as="sourcePoint" />
            <mxPoint x="2964.4100000000003" y="463.42" as="targetPoint" />
          </mxGeometry>
        </mxCell>
        <mxCell id="BmsCWMG4lTgQBCQrbxtK-102" value="" style="endArrow=classic;html=1;rounded=0;fontSize=15;exitX=0.526;exitY=0.989;exitDx=0;exitDy=0;exitPerimeter=0;" parent="1" edge="1">
          <mxGeometry width="50" height="50" relative="1" as="geometry">
            <mxPoint x="2964.41" y="512.99" as="sourcePoint" />
            <mxPoint x="2964.41" y="559.9900000000001" as="targetPoint" />
          </mxGeometry>
        </mxCell>
        <mxCell id="BmsCWMG4lTgQBCQrbxtK-103" value="" style="endArrow=classic;html=1;rounded=0;fontSize=15;exitX=0.526;exitY=0.989;exitDx=0;exitDy=0;exitPerimeter=0;" parent="1" edge="1">
          <mxGeometry width="50" height="50" relative="1" as="geometry">
            <mxPoint x="2964.2299999999996" y="609.99" as="sourcePoint" />
            <mxPoint x="2964.2299999999996" y="935.99" as="targetPoint" />
          </mxGeometry>
        </mxCell>
        <mxCell id="BmsCWMG4lTgQBCQrbxtK-104" value="" style="endArrow=none;html=1;rounded=0;" parent="1" edge="1">
          <mxGeometry width="50" height="50" relative="1" as="geometry">
            <mxPoint x="1021.57" y="980" as="sourcePoint" />
            <mxPoint x="1021.57" y="940" as="targetPoint" />
          </mxGeometry>
        </mxCell>
        <mxCell id="BmsCWMG4lTgQBCQrbxtK-105" value="" style="endArrow=none;html=1;rounded=0;" parent="1" edge="1">
          <mxGeometry width="50" height="50" relative="1" as="geometry">
            <mxPoint x="2580" y="980" as="sourcePoint" />
            <mxPoint x="2580" y="940" as="targetPoint" />
          </mxGeometry>
        </mxCell>
        <mxCell id="BmsCWMG4lTgQBCQrbxtK-106" value="" style="endArrow=none;html=1;rounded=0;" parent="1" edge="1">
          <mxGeometry width="50" height="50" relative="1" as="geometry">
            <mxPoint x="1021.57" y="980" as="sourcePoint" />
            <mxPoint x="1880" y="980" as="targetPoint" />
          </mxGeometry>
        </mxCell>
        <mxCell id="BmsCWMG4lTgQBCQrbxtK-107" value="" style="endArrow=none;html=1;rounded=0;" parent="1" source="BmsCWMG4lTgQBCQrbxtK-109" edge="1">
          <mxGeometry width="50" height="50" relative="1" as="geometry">
            <mxPoint x="1879.79" y="1020" as="sourcePoint" />
            <mxPoint x="1879.79" y="980" as="targetPoint" />
          </mxGeometry>
        </mxCell>
        <mxCell id="BmsCWMG4lTgQBCQrbxtK-108" value="" style="endArrow=none;html=1;rounded=0;" parent="1" edge="1">
          <mxGeometry width="50" height="50" relative="1" as="geometry">
            <mxPoint x="1880" y="980" as="sourcePoint" />
            <mxPoint x="2580" y="980" as="targetPoint" />
          </mxGeometry>
        </mxCell>
        <mxCell id="BmsCWMG4lTgQBCQrbxtK-109" value="" style="html=1;points=[[0,0,0,0,5],[0,1,0,0,-5],[1,0,0,0,5],[1,1,0,0,-5]];perimeter=orthogonalPerimeter;outlineConnect=0;targetShapes=umlLifeline;portConstraint=eastwest;newEdgeStyle={&quot;curved&quot;:0,&quot;rounded&quot;:0};rotation=-90;fillColor=#000000;fontSize=15;" parent="1" vertex="1">
          <mxGeometry x="1685.63" y="-345.62" width="10" height="2746.25" as="geometry" />
        </mxCell>
        <mxCell id="BmsCWMG4lTgQBCQrbxtK-110" value="" style="endArrow=none;html=1;rounded=0;" parent="1" edge="1">
          <mxGeometry width="50" height="50" relative="1" as="geometry">
            <mxPoint x="1880" y="1200" as="sourcePoint" />
            <mxPoint x="1879.47" y="1030" as="targetPoint" />
          </mxGeometry>
        </mxCell>
        <mxCell id="BmsCWMG4lTgQBCQrbxtK-111" value="" style="ellipse;html=1;shape=endState;fillColor=#000000;strokeColor=#000000;" parent="1" vertex="1">
          <mxGeometry x="1856.25" y="1200" width="47.5" height="50" as="geometry" />
        </mxCell>
        <mxCell id="BmsCWMG4lTgQBCQrbxtK-112" value="" style="endArrow=classic;html=1;rounded=0;fontSize=15;exitX=0.526;exitY=0.989;exitDx=0;exitDy=0;exitPerimeter=0;" parent="1" edge="1">
          <mxGeometry width="50" height="50" relative="1" as="geometry">
            <mxPoint x="2089.4700000000003" y="513" as="sourcePoint" />
            <mxPoint x="2089.4700000000003" y="560.0000000000001" as="targetPoint" />
          </mxGeometry>
        </mxCell>
        <mxCell id="BmsCWMG4lTgQBCQrbxtK-113" value="&lt;font style=&quot;font-size: 17px;&quot;&gt;Сохранение изменений&lt;/font&gt;" style="rounded=1;whiteSpace=wrap;html=1;arcSize=35;fontSize=15;" parent="1" vertex="1">
          <mxGeometry x="1995" y="563.28" width="190" height="50" as="geometry" />
        </mxCell>
        <mxCell id="BmsCWMG4lTgQBCQrbxtK-114" value="&lt;font style=&quot;font-size: 17px;&quot;&gt;Сохранение изменений&lt;/font&gt;" style="rounded=1;whiteSpace=wrap;html=1;arcSize=35;fontSize=15;" parent="1" vertex="1">
          <mxGeometry x="2220.7799999999997" y="559.99" width="190" height="50" as="geometry" />
        </mxCell>
        <mxCell id="BmsCWMG4lTgQBCQrbxtK-115" value="&lt;font style=&quot;font-size: 17px;&quot;&gt;Сохранение изменений&lt;/font&gt;" style="rounded=1;whiteSpace=wrap;html=1;arcSize=35;fontSize=15;" parent="1" vertex="1">
          <mxGeometry x="2435.39" y="559.99" width="190" height="50" as="geometry" />
        </mxCell>
        <mxCell id="0kofAaPT9FwAdWP_7eDT-2" value="" style="endArrow=classic;html=1;rounded=0;fontSize=15;" edge="1" parent="1">
          <mxGeometry width="50" height="50" relative="1" as="geometry">
            <mxPoint x="430.18" y="516.28" as="sourcePoint" />
            <mxPoint x="429.76" y="559.99" as="targetPoint" />
          </mxGeometry>
        </mxCell>
      </root>
    </mxGraphModel>
  </diagram>
</mxfile>
